# Blender v3.0.0 OBJ File: ''
# www.blender.org
mtllib CubeBevel.mtl
o Cube
v 0.090000 0.090000 -0.100000
v 0.090000 0.100000 -0.090000
v 0.100000 0.090000 -0.090000
v 0.090000 0.097071 -0.097071
v 0.095774 0.095774 -0.095774
v 0.097071 0.097071 -0.090000
v 0.097071 0.090000 -0.097071
v 0.090000 -0.100000 -0.090000
v 0.090000 -0.090000 -0.100000
v 0.100000 -0.090000 -0.090000
v 0.090000 -0.097071 -0.097071
v 0.095774 -0.095774 -0.095774
v 0.097071 -0.090000 -0.097071
v 0.097071 -0.097071 -0.090000
v 0.100000 0.090000 0.090000
v 0.090000 0.100000 0.090000
v 0.090000 0.090000 0.100000
v 0.097071 0.097071 0.090000
v 0.095774 0.095774 0.095774
v 0.090000 0.097071 0.097071
v 0.097071 0.090000 0.097071
v 0.100000 -0.090000 0.090000
v 0.090000 -0.090000 0.100000
v 0.090000 -0.100000 0.090000
v 0.097071 -0.090000 0.097071
v 0.095774 -0.095774 0.095774
v 0.090000 -0.097071 0.097071
v 0.097071 -0.097071 0.090000
v -0.090000 0.090000 -0.100000
v -0.100000 0.090000 -0.090000
v -0.090000 0.100000 -0.090000
v -0.097071 0.090000 -0.097071
v -0.095774 0.095774 -0.095774
v -0.097071 0.097071 -0.090000
v -0.090000 0.097071 -0.097071
v -0.100000 -0.090000 -0.090000
v -0.090000 -0.090000 -0.100000
v -0.090000 -0.100000 -0.090000
v -0.097071 -0.090000 -0.097071
v -0.095774 -0.095774 -0.095774
v -0.090000 -0.097071 -0.097071
v -0.097071 -0.097071 -0.090000
v -0.100000 0.090000 0.090000
v -0.090000 0.090000 0.100000
v -0.090000 0.100000 0.090000
v -0.097071 0.090000 0.097071
v -0.095774 0.095774 0.095774
v -0.090000 0.097071 0.097071
v -0.097071 0.097071 0.090000
v -0.090000 -0.100000 0.090000
v -0.090000 -0.090000 0.100000
v -0.100000 -0.090000 0.090000
v -0.090000 -0.097071 0.097071
v -0.095774 -0.095774 0.095774
v -0.097071 -0.090000 0.097071
v -0.097071 -0.097071 0.090000
vt 0.137500 0.512500
vt 0.362500 0.512500
vt 0.362500 0.737500
vt 0.137500 0.737500
vt 0.387500 0.012500
vt 0.612500 0.012500
vt 0.612500 0.237500
vt 0.387500 0.237500
vt 0.387500 0.762500
vt 0.612500 0.762500
vt 0.612500 0.987500
vt 0.387500 0.987500
vt 0.637500 0.512500
vt 0.862500 0.512500
vt 0.862500 0.737500
vt 0.637500 0.737500
vt 0.387500 0.512500
vt 0.612500 0.512500
vt 0.612500 0.737500
vt 0.387500 0.737500
vt 0.387500 0.262500
vt 0.612500 0.262500
vt 0.612500 0.487500
vt 0.387500 0.487500
vt 0.625000 0.487500
vt 0.623239 0.500000
vt 0.612500 0.500000
vt 0.625000 0.512500
vt 0.637500 0.500000
vt 0.362500 0.500000
vt 0.375000 0.501761
vt 0.375000 0.512500
vt 0.387500 0.500000
vt 0.375000 0.487500
vt 0.625000 0.737500
vt 0.625000 0.748239
vt 0.612500 0.750000
vt 0.637500 0.750000
vt 0.625000 0.762500
vt 0.387500 0.750000
vt 0.376761 0.750000
vt 0.375000 0.737500
vt 0.375000 0.762500
vt 0.362500 0.750000
vt 0.612500 0.250000
vt 0.619717 0.250000
vt 0.625000 0.262500
vt 0.625000 0.237500
vt 0.625000 0.244717
vt 0.862500 0.500000
vt 0.869717 0.500000
vt 0.875000 0.512500
vt 0.387500 0.250000
vt 0.380283 0.250000
vt 0.375000 0.237500
vt 0.375000 0.262500
vt 0.375000 0.255283
vt 0.125000 0.512500
vt 0.125000 0.505283
vt 0.137500 0.500000
vt 0.612500 0.000000
vt 0.619717 0.000000
vt 0.625000 0.012500
vt 0.625000 0.987500
vt 0.625000 0.994717
vt 0.612500 1.000000
vt 0.875000 0.737500
vt 0.875000 0.744717
vt 0.862500 0.750000
vt 0.137500 0.750000
vt 0.130283 0.750000
vt 0.125000 0.737500
vt 0.387500 1.000000
vt 0.380283 1.000000
vt 0.375000 0.987500
vt 0.375000 0.012500
vt 0.375000 0.005283
vt 0.387500 0.000000
vn 0.0000 -1.0000 0.0000
vn -1.0000 0.0000 0.0000
vn 0.0000 0.0000 1.0000
vn 0.0000 1.0000 0.0000
vn 1.0000 0.0000 0.0000
vn 0.0000 0.0000 -1.0000
vn 0.1794 0.1794 -0.9673
vn 0.1726 0.6965 -0.6965
vn 0.5773 0.5773 -0.5773
vn 0.6965 0.1726 -0.6965
vn 0.1794 0.9673 -0.1794
vn 0.6965 0.6965 -0.1726
vn 0.9673 0.1794 -0.1794
vn 0.1794 -0.9673 -0.1794
vn 0.1726 -0.6965 -0.6965
vn 0.5773 -0.5773 -0.5773
vn 0.6965 -0.6965 -0.1726
vn 0.1794 -0.1794 -0.9673
vn 0.6965 -0.1726 -0.6965
vn 0.9673 -0.1794 -0.1794
vn 0.9673 0.1794 0.1794
vn 0.6965 0.6965 0.1726
vn 0.5773 0.5773 0.5773
vn 0.6965 0.1726 0.6965
vn 0.1794 0.9673 0.1794
vn 0.1726 0.6965 0.6965
vn 0.1794 0.1794 0.9673
vn 0.9673 -0.1794 0.1794
vn 0.6965 -0.1726 0.6965
vn 0.5773 -0.5773 0.5773
vn 0.6965 -0.6965 0.1726
vn 0.1794 -0.1794 0.9673
vn 0.1726 -0.6965 0.6965
vn 0.1794 -0.9673 0.1794
vn -0.1794 0.1794 -0.9673
vn -0.6965 0.1726 -0.6965
vn -0.5773 0.5773 -0.5773
vn -0.1726 0.6965 -0.6965
vn -0.9673 0.1794 -0.1794
vn -0.6965 0.6965 -0.1726
vn -0.1794 0.9673 -0.1794
vn -0.9673 -0.1794 -0.1794
vn -0.6965 -0.1726 -0.6965
vn -0.5773 -0.5773 -0.5773
vn -0.6965 -0.6965 -0.1726
vn -0.1794 -0.1794 -0.9673
vn -0.1726 -0.6965 -0.6965
vn -0.1794 -0.9673 -0.1794
vn -0.9673 0.1794 0.1794
vn -0.6965 0.1726 0.6965
vn -0.5773 0.5773 0.5773
vn -0.6965 0.6965 0.1726
vn -0.1794 0.1794 0.9673
vn -0.1726 0.6965 0.6965
vn -0.1794 0.9673 0.1794
vn -0.1794 -0.9673 0.1794
vn -0.1726 -0.6965 0.6965
vn -0.5773 -0.5773 0.5773
vn -0.6965 -0.6965 0.1726
vn -0.1794 -0.1794 0.9673
vn -0.6965 -0.1726 0.6965
vn -0.9673 -0.1794 0.1794
usemtl Material
s off
f 38/1/1 8/2/1 24/3/1 50/4/1
f 52/5/2 43/6/2 30/7/2 36/8/2
f 23/9/3 17/10/3 44/11/3 51/12/3
f 2/13/4 31/14/4 45/15/4 16/16/4
f 10/17/5 3/18/5 15/19/5 22/20/5
f 37/21/6 29/22/6 1/23/6 9/24/6
s 1
f 1/23/7 4/25/8 5/26/9 7/27/10
f 2/13/11 6/28/12 5/26/9 4/29/8
f 3/18/13 7/27/10 5/26/9 6/28/12
f 8/2/14 11/30/15 12/31/16 14/32/17
f 9/24/18 13/33/19 12/31/16 11/34/15
f 10/17/20 14/32/17 12/31/16 13/33/19
f 15/19/21 18/35/22 19/36/23 21/37/24
f 16/16/25 20/38/26 19/36/23 18/35/22
f 17/10/27 21/37/24 19/36/23 20/39/26
f 22/20/28 25/40/29 26/41/30 28/42/31
f 23/9/32 27/43/33 26/41/30 25/40/29
f 24/3/34 28/42/31 26/41/30 27/44/33
f 29/22/35 32/45/36 33/46/37 35/47/38
f 30/7/39 34/48/40 33/49/37 32/45/36
f 31/14/41 35/50/38 33/51/37 34/52/40
f 36/8/42 39/53/43 40/54/44 42/55/45
f 37/21/46 41/56/47 40/57/44 39/53/43
f 38/1/48 42/58/45 40/59/44 41/60/47
f 43/6/49 46/61/50 47/62/51 49/63/52
f 44/11/53 48/64/54 47/65/51 46/66/50
f 45/15/55 49/67/52 47/68/51 48/69/54
f 50/4/56 53/70/57 54/71/58 56/72/59
f 51/12/60 55/73/61 54/74/58 53/75/57
f 52/5/62 56/76/59 54/77/58 55/78/61
f 38/1/48 50/4/56 56/72/59 42/58/45
f 42/55/45 56/76/59 52/5/62 36/8/42
f 8/2/14 38/1/48 41/60/47 11/30/15
f 11/34/15 41/56/47 37/21/46 9/24/18
f 3/18/13 10/17/20 13/33/19 7/27/10
f 7/27/10 13/33/19 9/24/18 1/23/7
f 51/12/60 44/11/53 46/66/50 55/73/61
f 55/78/61 46/61/50 43/6/49 52/5/62
f 17/10/27 23/9/32 25/40/29 21/37/24
f 21/37/24 25/40/29 22/20/28 15/19/21
f 29/22/35 37/21/46 39/53/43 32/45/36
f 32/45/36 39/53/43 36/8/42 30/7/39
f 16/16/25 45/15/55 48/69/54 20/38/26
f 20/39/26 48/64/54 44/11/53 17/10/27
f 2/13/11 16/16/25 18/35/22 6/28/12
f 6/28/12 18/35/22 15/19/21 3/18/13
f 50/4/56 24/3/34 27/44/33 53/70/57
f 53/75/57 27/43/33 23/9/32 51/12/60
f 45/15/55 31/14/41 34/52/40 49/67/52
f 49/63/52 34/48/40 30/7/39 43/6/49
f 31/14/41 2/13/11 4/29/8 35/50/38
f 35/47/38 4/25/8 1/23/7 29/22/35
f 24/3/34 8/2/14 14/32/17 28/42/31
f 28/42/31 14/32/17 10/17/20 22/20/28
