# Blender v3.0.0 OBJ File: ''
# www.blender.org
mtllib QuartCircleBevel.mtl
o Cube.003
v -0.201851 -0.046720 -0.230343
v -0.196851 -0.046755 -0.235426
v -0.196851 -0.049220 -0.231262
v -0.200387 -0.046737 -0.233920
v -0.199738 -0.048171 -0.233778
v -0.196851 -0.048505 -0.234570
v -0.200387 -0.048480 -0.230976
v -0.196851 -0.023115 -0.227407
v -0.201851 -0.018557 -0.220789
v -0.200387 -0.021780 -0.225469
v -0.106851 -0.049220 -0.231262
v -0.106851 -0.046755 -0.235426
v -0.101851 -0.046720 -0.230343
v -0.106851 -0.048505 -0.234570
v -0.103964 -0.048171 -0.233778
v -0.103316 -0.046737 -0.233920
v -0.103316 -0.048480 -0.230976
v -0.101851 -0.018557 -0.220789
v -0.106851 -0.023115 -0.227407
v -0.103316 -0.021780 -0.225469
v -0.196851 -0.049220 -0.215458
v -0.201851 -0.046720 -0.215136
v -0.200387 -0.048488 -0.215364
v -0.196851 -0.049220 -0.190821
v -0.201851 -0.046720 -0.190834
v -0.200387 -0.048488 -0.190825
v -0.201851 -0.046720 -0.171183
v -0.196851 -0.049220 -0.171183
v -0.196851 -0.046720 -0.166183
v -0.200387 -0.048488 -0.171183
v -0.199738 -0.048163 -0.168297
v -0.196851 -0.048488 -0.167648
v -0.200387 -0.046720 -0.167648
v -0.201851 0.004688 -0.171183
v -0.196851 0.006020 -0.166183
v -0.196851 0.007843 -0.170997
v -0.200387 0.005494 -0.167687
v -0.199738 0.007039 -0.168257
v -0.196851 0.007726 -0.167554
v -0.200387 0.006783 -0.171090
v -0.196851 0.005014 -0.191110
v -0.201851 0.001866 -0.191093
v -0.200387 0.004092 -0.191105
v -0.201851 -0.005918 -0.209874
v -0.196851 -0.002518 -0.209435
v -0.200387 -0.003514 -0.209564
v -0.101851 -0.046720 -0.171183
v -0.106851 -0.046720 -0.166183
v -0.106851 -0.049220 -0.171183
v -0.103316 -0.046720 -0.167648
v -0.103964 -0.048163 -0.168297
v -0.106851 -0.048488 -0.167648
v -0.103316 -0.048488 -0.171183
v -0.106851 -0.049220 -0.190821
v -0.101851 -0.046720 -0.190834
v -0.103316 -0.048488 -0.190825
v -0.101851 -0.046720 -0.215136
v -0.106851 -0.049220 -0.215458
v -0.103316 -0.048488 -0.215364
v -0.106851 -0.002518 -0.209435
v -0.101851 -0.005918 -0.209874
v -0.103316 -0.003514 -0.209564
v -0.106851 0.005014 -0.191110
v -0.101851 0.001866 -0.191093
v -0.103316 0.004092 -0.191105
v -0.101851 0.004688 -0.171183
v -0.106851 0.007843 -0.170997
v -0.106851 0.006020 -0.166183
v -0.103332 0.006883 -0.171357
v -0.103964 0.007001 -0.168313
v -0.106851 0.007590 -0.167593
v -0.103316 0.005354 -0.167648
vt 0.137500 0.510014
vt 0.362500 0.510014
vt 0.362500 0.541667
vt 0.137500 0.541667
vt 0.395647 0.510486
vt 0.605177 0.516486
vt 0.606801 0.541667
vt 0.388383 0.541667
vt 0.386524 0.583333
vt 0.610487 0.583333
vt 0.611260 0.616636
vt 0.386054 0.616551
vt 0.388383 0.208333
vt 0.606801 0.208333
vt 0.605177 0.233514
vt 0.395647 0.239514
vt 0.386054 0.133449
vt 0.611260 0.133364
vt 0.610487 0.166667
vt 0.386524 0.166667
vt 0.605536 0.167278
vt 0.156963 0.607722
vt 0.375510 0.620629
vt 0.611990 0.604370
vt 0.137500 0.583333
vt 0.362500 0.583333
vt 0.362500 0.616544
vt 0.137500 0.616544
vt 0.637500 0.500000
vt 0.862500 0.500000
vt 0.862500 0.541667
vt 0.637500 0.541667
vt 0.862500 0.583333
vt 0.637500 0.583333
vt 0.862500 0.616954
vt 0.637500 0.616954
vt 0.399958 0.250000
vt 0.386728 0.250000
vt 0.375000 0.239412
vt 0.398605 0.262500
vt 0.375000 0.262500
vt 0.375000 0.255283
vt 0.125000 0.510588
vt 0.125000 0.504976
vt 0.137500 0.500000
vt 0.362500 0.500000
vt 0.377148 0.501659
vt 0.375000 0.510588
vt 0.398605 0.487500
vt 0.399958 0.500000
vt 0.375000 0.487500
vt 0.375000 0.133456
vt 0.375000 0.128574
vt 0.385824 0.125000
vt 0.137500 0.625000
vt 0.130283 0.625000
vt 0.125000 0.616544
vt 0.146649 0.603351
vt 0.134150 0.615850
vt 0.611897 0.125000
vt 0.618586 0.125000
vt 0.625000 0.134114
vt 0.625000 0.150000
vt 0.625000 0.135566
vt 0.598795 0.151205
vt 0.875000 0.615886
vt 0.875000 0.620497
vt 0.862500 0.625000
vt 0.385824 0.625000
vt 0.374764 0.623809
vt 0.375000 0.616544
vt 0.362500 0.625000
vt 0.625000 0.615558
vt 0.624568 0.623459
vt 0.611290 0.625000
vt 0.637500 0.625000
vt 0.625000 0.600000
vt 0.875000 0.502988
vt 0.875000 0.539927
vt 0.625000 0.210073
vt 0.625000 0.247012
vt 0.625000 0.262500
vt 0.625000 0.250000
vt 0.625000 0.500000
vt 0.625000 0.487500
vt 0.375000 0.541746
vt 0.125000 0.541667
vt 0.375000 0.208333
vt 0.125000 0.583327
vt 0.125000 0.541826
vt 0.375000 0.208174
vt 0.375000 0.166673
vt 0.875000 0.583333
vt 0.625000 0.166667
vt 0.875000 0.541667
vt 0.875000 0.581283
vt 0.625000 0.168717
vt 0.625000 0.208333
vt 0.375000 0.583330
vt 0.625000 0.540797
vt 0.625000 0.502988
vt 0.625000 0.582308
vn 0.0000 -1.0000 0.0000
vn 1.0000 -0.0000 0.0000
vn -1.0000 0.0000 0.0000
vn 0.0000 0.0000 1.0000
vn 0.1529 0.4674 -0.8707
vn -0.1529 0.4674 -0.8707
vn -0.1032 0.8158 -0.5690
vn 0.1032 0.8158 -0.5690
vn -0.1269 0.9581 -0.2568
vn 0.1223 0.9585 -0.2576
vn -0.1327 0.9897 -0.0523
vn 0.1232 0.9915 -0.0414
vn -0.9469 -0.2640 -0.1835
vn -0.7048 -0.1126 -0.7004
vn -0.4841 -0.6960 -0.5302
vn -0.5547 -0.8201 -0.1401
vn -0.1823 -0.0432 -0.9823
vn -0.1470 -0.7601 -0.6330
vn -0.0991 -0.9899 -0.1010
vn 0.0991 -0.9899 -0.1010
vn 0.1470 -0.7601 -0.6330
vn 0.4841 -0.6960 -0.5302
vn 0.5547 -0.8201 -0.1401
vn 0.1823 -0.0432 -0.9823
vn 0.7048 -0.1126 -0.7004
vn 0.9469 -0.2640 -0.1835
vn -0.9342 -0.3114 0.1740
vn -0.5301 -0.8389 0.1233
vn -0.4503 -0.7710 0.4503
vn -0.6754 -0.2981 0.6744
vn -0.0953 -0.9908 0.0953
vn -0.1233 -0.8389 0.5301
vn -0.1747 -0.3114 0.9340
vn -0.9531 0.2707 0.1350
vn -0.7111 0.2829 0.6436
vn -0.5283 0.7631 0.3722
vn -0.6067 0.7949 0.0058
vn -0.1923 0.3179 0.9284
vn -0.1692 0.8725 0.4584
vn 0.9343 -0.3114 0.1735
vn 0.6749 -0.2985 0.6749
vn 0.4503 -0.7710 0.4503
vn 0.5301 -0.8389 0.1233
vn 0.1735 -0.3114 0.9343
vn 0.1233 -0.8389 0.5301
vn 0.0953 -0.9908 0.0953
vn 0.9528 0.2691 0.1404
vn 0.5968 0.8024 0.0084
vn 0.5236 0.7649 0.3750
vn 0.7070 0.2808 0.6491
vn 0.1650 0.8715 0.4617
vn 0.1910 0.3276 0.9253
vn -0.6041 0.4084 -0.6843
vn -0.5075 0.7049 -0.4956
vn -0.9185 0.2454 -0.3099
vn -0.9139 0.3024 -0.2708
vn 0.9185 0.2454 -0.3099
vn 0.6041 0.4084 -0.6843
vn 0.1022 -0.9948 -0.0000
vn 0.5155 -0.8569 -0.0001
vn 0.9407 -0.3393 -0.0000
vn -0.1022 -0.9948 -0.0000
vn -0.5155 -0.8569 -0.0001
vn -0.9407 -0.3393 -0.0000
vn -0.1019 -0.9948 0.0000
vn -0.5155 -0.8569 0.0000
vn -0.9408 -0.3390 0.0000
vn -0.5616 0.7993 -0.2138
vn -0.9478 0.3063 -0.0888
vn 0.1019 -0.9948 0.0000
vn 0.5155 -0.8569 0.0000
vn 0.9408 -0.3390 0.0000
vn 0.5075 0.7049 -0.4956
vn 0.9139 0.3024 -0.2708
vn 0.5609 0.7993 -0.2153
vn 0.9486 0.3036 -0.0888
usemtl None
s off
f 3/1/1 11/2/1 58/3/1 21/4/1
f 13/5/2 18/6/2 61/7/2 57/8/2
f 55/9/2 64/10/2 66/11/2 47/12/2
f 22/13/3 44/14/3 9/15/3 1/16/3
f 27/17/3 34/18/3 42/19/3 25/20/3
f 35/21/4 29/22/4 48/23/4 68/24/4
f 25/20/3 42/19/3 44/14/3 22/13/3
f 57/8/2 61/7/2 64/10/2 55/9/2
f 24/25/1 54/26/1 49/27/1 28/28/1
f 21/4/1 58/3/1 54/26/1 24/25/1
s 1
f 19/29/5 8/30/6 45/31/7 60/32/8
f 60/32/8 45/31/7 41/33/9 63/34/10
f 63/34/10 41/33/9 36/35/11 67/36/12
f 1/16/13 4/37/14 5/38/15 7/39/16
f 2/40/17 6/41/18 5/42/15 4/37/14
f 3/1/19 7/43/16 5/44/15 6/45/18
f 11/2/20 14/46/21 15/47/22 17/48/23
f 12/49/24 16/50/25 15/47/22 14/51/21
f 13/5/26 17/48/23 15/47/22 16/50/25
f 27/17/27 30/52/28 31/53/29 33/54/30
f 28/28/31 32/55/32 31/56/29 30/57/28
f 29/22/33 33/58/30 31/59/29 32/55/32
f 34/18/34 37/60/35 38/61/36 40/62/37
f 35/21/38 39/63/39 38/64/36 37/65/35
f 36/35/11 40/66/37 38/67/36 39/68/39
f 47/12/40 50/69/41 51/70/42 53/71/43
f 48/23/44 52/72/45 51/70/42 50/69/41
f 49/27/46 53/71/43 51/70/42 52/72/45
f 66/11/47 69/73/48 70/74/49 72/75/50
f 67/36/12 71/76/51 70/74/49 69/73/48
f 68/24/52 72/75/50 70/74/49 71/77/51
f 45/31/7 8/30/6 10/78/53 46/79/54
f 46/80/54 10/81/53 9/15/55 44/14/56
f 8/82/6 2/40/17 4/37/14 10/83/53
f 10/83/53 4/37/14 1/16/13 9/15/55
f 11/2/20 3/1/19 6/45/18 14/46/21
f 14/51/21 6/41/18 2/40/17 12/49/24
f 18/6/57 13/5/26 16/50/25 20/84/58
f 20/84/58 16/50/25 12/49/24 19/85/5
f 58/3/59 11/2/20 17/48/23 59/86/60
f 59/86/60 17/48/23 13/5/26 57/8/61
f 3/1/19 21/4/62 23/87/63 7/43/16
f 7/39/16 23/88/63 22/13/64 1/16/13
f 21/4/62 24/25/65 26/89/66 23/90/63
f 23/91/63 26/92/66 25/20/67 22/13/64
f 24/25/65 28/28/31 30/57/28 26/89/66
f 26/92/66 30/52/28 27/17/27 25/20/67
f 36/35/11 41/33/9 43/93/68 40/66/37
f 40/62/37 43/94/68 42/19/69 34/18/34
f 41/33/9 45/31/7 46/95/54 43/96/68
f 43/97/68 46/98/54 44/14/56 42/19/69
f 49/27/46 54/26/70 56/99/71 53/71/43
f 53/71/43 56/99/71 55/9/72 47/12/40
f 54/26/70 58/3/59 59/86/60 56/99/71
f 56/99/71 59/86/60 57/8/61 55/9/72
f 19/29/5 60/32/8 62/100/73 20/101/58
f 20/101/58 62/100/73 61/7/74 18/6/57
f 60/32/8 63/34/10 65/102/75 62/100/73
f 62/100/73 65/102/75 64/10/76 61/7/74
f 63/34/10 67/36/12 69/73/48 65/102/75
f 65/102/75 69/73/48 66/11/47 64/10/76
f 35/21/38 68/24/52 71/77/51 39/63/39
f 39/68/39 71/76/51 67/36/12 36/35/11
f 48/23/44 29/22/33 32/55/32 52/72/45
f 52/72/45 32/55/32 28/28/31 49/27/46
f 68/24/52 48/23/44 50/69/41 72/75/50
f 72/75/50 50/69/41 47/12/40 66/11/47
f 34/18/34 27/17/27 33/54/30 37/60/35
f 37/65/35 33/58/30 29/22/33 35/21/38
f 2/40/17 8/82/6 19/85/5 12/49/24
